<svg width="48" height="48" viewBox="0 0 48 48" fill="none" xmlns="http://www.w3.org/2000/svg">
<path d="M7.05541 42.7962L3.28516 0.50708H44.7152L40.9412 42.7898L23.975 47.4935L7.05541 42.7962Z" fill="#1572B6"/>
<path d="M24 43.8983L37.7096 40.0974L40.935 3.9646H24V43.8983Z" fill="#33A9DC"/>
<path d="M24 19.2858H30.8633L31.3373 13.9747H24V8.78809H37.0057L36.8812 10.1797L35.6062 24.4725H24V19.2858Z" fill="white"/>
<path d="M24.0314 32.7559L24.0085 32.7627L18.2324 31.203L17.863 27.0664H12.6572L13.3836 35.2103L24.0077 38.1589L24.0314 38.1522V32.7559Z" fill="#EBEBEB"/>
<path d="M30.4222 24.2532L29.7974 31.1989L24.0127 32.7604V38.1567L34.6454 35.2099L34.7234 34.3335L35.6257 24.2532H30.4222Z" fill="white"/>
<path d="M24.0176 8.78809V13.9747H11.4896L11.3858 12.8092L11.1495 10.1797L11.0254 8.78809H24.0176ZM24 19.2866V24.4732H18.2966L18.1928 23.3077L17.9561 20.6782L17.8324 19.2866H24Z" fill="#EBEBEB"/>
</svg>
