<svg width="184" height="166" viewBox="0 0 184 166" fill="none" xmlns="http://www.w3.org/2000/svg">
<path d="M22.0106 8.1335C16.0092 3.70939 7.55761 4.98803 3.1335 10.9894C-1.29061 16.9908 -0.0119668 25.4424 5.98944 29.8665L22.0106 8.1335ZM172.019 147.348C179.391 146.233 184.463 139.353 183.348 131.981L165.173 11.8476C164.058 4.47568 157.177 -0.596325 149.805 0.518989C142.434 1.6343 137.362 8.51459 138.477 15.8865L154.632 122.671L47.8476 138.827C40.4757 139.942 35.4037 146.823 36.519 154.195C37.6343 161.567 44.5146 166.639 51.8866 165.523L172.019 147.348ZM5.98944 29.8665L161.989 144.867L178.011 123.133L22.0106 8.1335L5.98944 29.8665Z" fill="#2E2E2E"/>
</svg>
