<svg width="48" height="48" viewBox="0 0 48 48" fill="none" xmlns="http://www.w3.org/2000/svg">
<path d="M8.85292 40.8015L5.48242 3H42.5174L39.1424 40.7955L23.9774 45L8.85292 40.8015Z" fill="#E44F26"/>
<path d="M24 41.7871L36.255 38.3896L39.138 6.09155H24V41.7871Z" fill="#F1662A"/>
<path d="M24 20.1106H17.865L17.442 15.3631H24V10.7266H12.375L12.486 11.9716L13.6245 24.7471H24V20.1106ZM24 32.1511L23.979 32.1571L18.816 30.7636L18.486 27.0661H13.8315L14.481 34.3441L23.979 36.9811L24 36.9751V32.1511Z" fill="#EBEBEB"/>
<path d="M23.9834 20.1106V24.7471H29.6924L29.1554 30.7606L23.9834 32.1556V36.9796L33.4889 34.3441L33.5579 33.5611L34.6469 21.3556L34.7609 20.1106H23.9834ZM23.9834 10.7266V15.3631H35.1824L35.2754 14.3221L35.4869 11.9716L35.5979 10.7266H23.9834Z" fill="white"/>
</svg>
