<svg width="48" height="48" viewBox="0 0 48 48" fill="none" xmlns="http://www.w3.org/2000/svg">
<path d="M3 3H45V45H3V3Z" fill="#F5DE19"/>
<path d="M31.2131 35.8125C31.5715 36.539 32.1276 37.1496 32.8175 37.5741C33.5074 37.9986 34.3031 38.2199 35.1131 38.2125C36.7481 38.2125 37.7936 37.395 37.7936 36.2625C37.7936 34.9125 36.7196 34.4295 34.9196 33.642L33.9326 33.219C31.0826 32.0055 29.1926 30.486 29.1926 27.273C29.1926 24.3135 31.4426 22.059 34.9721 22.059C36.1146 21.9767 37.2561 22.2325 38.2543 22.7945C39.2524 23.3566 40.063 24.1999 40.5851 25.2195L37.4996 27.192C37.2985 26.6865 36.9485 26.2541 36.4961 25.9519C36.0436 25.6498 35.5101 25.4922 34.9661 25.5C34.7288 25.4763 34.4891 25.5022 34.2623 25.5762C34.0355 25.6502 33.8266 25.7706 33.649 25.9298C33.4713 26.089 33.3287 26.2834 33.2304 26.5008C33.132 26.7181 33.08 26.9535 33.0776 27.192C33.0776 28.3755 33.8111 28.8555 35.5046 29.592L36.4916 30.015C39.8456 31.4535 41.7416 32.919 41.7416 36.2145C41.7416 39.768 38.9501 41.715 35.2016 41.715C33.7412 41.8071 32.2853 41.4751 31.0092 40.759C29.7332 40.0428 28.6913 38.9731 28.0091 37.6785L31.2131 35.8125ZM17.2706 36.1545C17.8901 37.254 18.4541 38.184 19.8101 38.184C21.1061 38.184 21.9251 37.677 21.9251 35.7045V22.284H25.8716V35.757C25.8716 39.843 23.4716 41.703 19.9781 41.703C18.7432 41.7705 17.5168 41.4628 16.4601 40.8203C15.4034 40.1777 14.5659 39.2305 14.0576 38.103L17.2706 36.1545Z" fill="black"/>
</svg>
