<svg width="48" height="48" viewBox="0 0 48 48" fill="none" xmlns="http://www.w3.org/2000/svg">
<path d="M24.2567 28.05C23.5352 28.3815 22.7447 28.8135 21.1622 29.682C20.5622 30.0195 19.9352 30.357 19.3517 30.675C19.3112 30.6345 19.2692 30.5835 19.2287 30.5415C16.0982 27.1965 10.3082 24.834 10.5542 20.3415C10.6457 18.705 11.2082 14.409 21.6737 9.19201C30.2867 4.94701 37.1402 6.12301 38.3237 8.73151C40.0247 12.45 34.6502 19.3695 25.7552 20.373C24.7707 20.5726 23.754 20.5484 22.7801 20.3023C21.8063 20.0562 20.9001 19.5944 20.1287 18.951C19.6577 18.4395 19.5872 18.4095 19.4132 18.5115C19.1267 18.6615 19.3112 19.125 19.4132 19.3905C19.7525 20.0048 20.2115 20.5449 20.7631 20.9788C21.3147 21.4126 21.9477 21.7315 22.6247 21.9165C26.1251 22.6731 29.7747 22.3116 33.0587 20.883C38.4497 18.7965 42.6587 12.996 41.4257 8.13301C40.1882 3.20251 32.0042 1.57651 24.2612 4.32751C19.4121 5.9616 14.932 8.53397 11.0762 11.898C6.81019 15.888 6.13519 19.356 6.41119 20.808C7.40419 25.9635 14.5112 29.319 17.3612 31.8045C17.2132 31.8845 17.0837 31.956 16.9727 32.019C15.5507 32.7255 10.1297 35.559 8.77819 38.556C7.24369 41.952 9.02419 44.3865 10.2002 44.7135C11.9724 45.1385 13.8331 44.9991 15.5223 44.315C17.2115 43.6308 18.6447 42.436 19.6217 40.8975C20.4516 39.622 20.9612 38.165 21.1072 36.6503C21.2532 35.1356 21.0312 33.608 20.4602 32.1975C20.797 31.9286 21.1563 31.6892 21.5342 31.482C22.2602 31.053 22.9517 30.63 23.5652 30.303C25.6662 29.3203 27.9583 28.8137 30.2777 28.8195C35.1467 29.3925 36.1082 32.43 35.9237 33.7095C35.8371 34.1634 35.6544 34.5935 35.388 34.9709C35.1215 35.3484 34.7774 35.6645 34.3787 35.898C34.0412 36.1125 33.9287 36.1845 33.9587 36.3375C33.9992 36.5625 34.1627 36.552 34.4492 36.5115C35.1807 36.2803 35.8252 35.8332 36.298 35.229C36.7708 34.6248 37.0497 33.8917 37.0982 33.126C37.2482 30.126 34.3877 26.835 29.3237 26.865C27.8076 26.8694 26.3067 27.1685 24.9047 27.7455C24.6797 27.8385 24.4612 27.9385 24.2492 28.0455L24.2567 28.05ZM17.0192 39.8085C15.4022 41.568 13.1522 42.2325 12.1802 41.67C11.1302 41.07 11.5457 38.4675 13.5302 36.606C14.7046 35.5458 15.975 34.5972 17.3252 33.7725C17.5607 33.6225 17.9087 33.4245 18.3272 33.1725L18.4397 33.111L18.6857 32.961C19.0393 34.1477 19.0714 35.407 18.7785 36.6101C18.4857 37.8133 17.8786 38.917 17.0192 39.8085Z" fill="#CD6799"/>
</svg>
